<svg xmlns="http://www.w3.org/2000/svg" version="1.1" viewBox="279.48 375.11 461.81 258.98">
<path d="M0 0 C8.32574569 -0.21506961 15.03047132 0.37687296 22.94921875 2.88769531 C25.59580788 3.29159952 25.59580788 3.29159952 28.54296875 1.60644531 C32.44130487 -0.12879895 36.09843277 -0.34864276 40.32421875 -0.23730469 C41.37971924 -0.22038574 41.37971924 -0.22038574 42.45654297 -0.203125 C50.38022624 0.00631156 56.01780159 1.29850744 62.38671875 6.07519531 C63.53140625 5.11613281 63.53140625 5.11613281 64.69921875 4.13769531 C70.20443983 -0.0872418 76.4124535 0.7803259 83.07421875 0.70019531 C84.23373047 0.6628125 85.39324219 0.62542969 86.58789062 0.58691406 C93.72784707 0.51385027 98.99060031 1.08490776 104.38671875 6.07519531 C104.71671875 6.73519531 105.04671875 7.39519531 105.38671875 8.07519531 C105.81082031 7.66527344 106.23492188 7.25535156 106.671875 6.83300781 C107.55166016 6.02476562 107.55166016 6.02476562 108.44921875 5.20019531 C109.30193359 4.3996875 109.30193359 4.3996875 110.171875 3.58300781 C116.76007616 -0.90208151 124.41819398 -0.22733316 132.07421875 -0.17480469 C133.18216797 -0.18253906 134.29011719 -0.19027344 135.43164062 -0.19824219 C148.9788001 -0.16657145 161.4075299 1.24047853 171.69921875 10.76269531 C179.07217006 18.62817171 181.74434638 27.2728654 181.6796875 37.82519531 C181.11150581 44.12822422 178.88234613 49.83175424 175.38671875 55.07519531 C175.58095268 58.47428907 176.77587441 60.7674036 178.44921875 63.63769531 C181.1894284 68.92740406 181.19840982 74.25397655 180.38671875 80.07519531 C177.88809399 85.25752815 174.27152954 88.71610739 169.05786133 91.17236328 C166.21665644 92.13267547 164.07442756 92.30546091 161.0859375 92.27050781 C159.62124023 92.26083984 159.62124023 92.26083984 158.12695312 92.25097656 C156.61584961 92.22583984 156.61584961 92.22583984 155.07421875 92.20019531 C154.04748047 92.19117188 153.02074219 92.18214844 151.96289062 92.17285156 C149.43725976 92.14935732 146.91211065 92.11650662 144.38671875 92.07519531 C144.87350098 92.79126953 145.3602832 93.50734375 145.86181641 94.24511719 C148.48545376 99.53906006 147.81336557 105.59276282 147.78515625 111.35644531 C147.78946152 113.2867157 147.78946152 113.2867157 147.79385376 115.25598145 C147.79826273 117.97268545 147.79189267 120.6890924 147.77783203 123.40576172 C147.76074044 126.87586365 147.77058938 130.34526934 147.78854942 133.81534576 C147.80203965 137.14160039 147.79257516 140.46767095 147.78515625 143.79394531 C147.79122894 145.03470825 147.79730164 146.27547119 147.80355835 147.55383301 C147.71562783 158.35308708 147.71562783 158.35308708 144.38671875 163.07519531 C139.17242592 168.17361497 134.79147525 170.15114575 127.57421875 170.26269531 C124.20241098 170.20175903 120.91858445 169.93631497 117.57421875 169.51269531 C114.21698149 169.09010601 111.70060118 169.31045321 108.38671875 170.07519531 C103.29650016 170.24486927 98.50199864 169.93011918 93.46484375 169.19628906 C91.42095191 168.96500444 91.42095191 168.96500444 89.64868164 169.55712891 C84.44909135 170.74801186 78.8824611 170.26000214 73.57421875 170.26269531 C72.31544922 170.27494141 71.05667969 170.2871875 69.75976562 170.29980469 C63.54296464 170.30963621 58.26087593 170.11838042 52.38671875 168.07519531 C49.537902 168.35474164 49.537902 168.35474164 46.38671875 169.07519531 C38.19484307 170.27650001 30.51670147 170.82851713 23.38671875 166.07519531 C20.91318818 166.29344801 18.74578661 166.9464997 16.4140625 167.78222656 C3.94458444 172.2466076 -8.02181331 171.64146788 -20.234375 166.32910156 C-30.84998764 160.73368012 -37.5267117 152.22419532 -41.61328125 141.07519531 C-44.63309016 130.47541692 -43.92268372 116.71595243 -38.61328125 107.07519531 C-35.20861708 101.48412359 -31.46029877 96.48157488 -26.61328125 92.07519531 C-27.62390625 91.51832031 -28.63453125 90.96144531 -29.67578125 90.38769531 C-30.24425781 90.07445312 -30.81273437 89.76121094 -31.3984375 89.43847656 C-34.32725352 88.95808875 -36.0198667 90.10320541 -38.63061523 91.3347168 C-42.21848996 92.67470252 -45.8267753 92.50737409 -49.61328125 92.45019531 C-50.3815625 92.46179688 -51.14984375 92.47339844 -51.94140625 92.48535156 C-58.48453242 92.45196827 -63.15046848 91.03425093 -68.36328125 86.88769531 C-74.3373933 79.42005525 -74.05630308 71.58621333 -74.01171875 62.41503906 C-74.01458893 61.11119766 -74.01745911 59.80735626 -74.02041626 58.46400452 C-74.0248167 55.71637191 -74.01848197 52.96903369 -74.00439453 50.22143555 C-73.98728654 46.71562032 -73.99716776 43.21049348 -74.01511192 39.70470333 C-74.02861166 36.33726131 -74.01913707 32.97000058 -74.01171875 29.60253906 C-74.01779144 28.35133774 -74.02386414 27.10013641 -74.03012085 25.8110199 C-73.95911054 16.98853715 -72.99870312 10.6430578 -66.61328125 4.07519531 C-61.00415134 0.30557004 -55.61483929 0.69368466 -49.11328125 0.82519531 C-48.09363281 0.83035156 -47.07398438 0.83550781 -46.0234375 0.84082031 C-41.09262089 0.89211619 -36.47725373 1.22242092 -31.61328125 2.07519531 C-30.95328125 1.74519531 -30.29328125 1.41519531 -29.61328125 1.07519531 C-27.758627 0.92087017 -25.89893778 0.82529148 -24.0390625 0.75878906 C-22.33520386 0.69558472 -22.33520386 0.69558472 -20.59692383 0.63110352 C-19.38544678 0.59202881 -18.17396973 0.5529541 -16.92578125 0.51269531 C-15.08632935 0.45118286 -15.08632935 0.45118286 -13.2097168 0.38842773 C-8.8067639 0.24773132 -4.40336447 0.12670369 0 0 Z " fill="#060606" transform="translate(559.61328125,437.9248046875)"/>
<path d="M0 0 C4.89913782 5.3890516 6.19171994 10.08285079 6.17578125 17.3046875 C6.17435623 18.04774139 6.17293121 18.79079529 6.17146301 19.55636597 C6.0793248 28.49635632 5.30013087 37.37387659 4.45581055 46.26953125 C4.18466824 49.15513677 3.93461934 52.04210255 3.68554688 54.9296875 C3.51428186 56.78917908 3.34180071 58.64855913 3.16796875 60.5078125 C3.05995186 61.78448288 3.05995186 61.78448288 2.94975281 63.08694458 C2.17270261 70.92486703 0.25844122 76.76037479 -6 82 C-11.09587465 85.43675267 -16.0272858 85.8742802 -22 85 C-24.25145255 84.12295862 -26.23992299 83.1187937 -28.30859375 81.875 C-30.12670573 80.77026064 -30.12670573 80.77026064 -33 81 C-34.83422872 82.30936246 -34.83422872 82.30936246 -36.65234375 84.10546875 C-37.34650391 84.75966797 -38.04066406 85.41386719 -38.75585938 86.08789062 C-39.83577148 87.12719727 -39.83577148 87.12719727 -40.9375 88.1875 C-41.65357422 88.86103516 -42.36964844 89.53457031 -43.10742188 90.22851562 C-46.7023104 93.64349314 -49.96469987 97.06836964 -53 101 C-54.31494512 102.35147138 -55.64264858 103.69112542 -57 105 C-56.01902344 104.95359375 -55.03804688 104.9071875 -54.02734375 104.859375 C-34.24234594 104.20910576 -16.74731523 110.66822114 -2 124 C-1.29230469 124.62648438 -0.58460938 125.25296875 0.14453125 125.8984375 C13.24787402 138.17499191 21.28923049 156.65511489 22.3515625 174.53515625 C23.04574291 196.57303901 15.66721596 216.41749772 0.58203125 232.58203125 C-14.30957062 246.52741939 -33.42084556 254.19144917 -53.80908203 254.08642578 C-74.4353094 253.27277696 -92.55537406 244.61286618 -107 230 C-114.3244368 222.06192945 -120.59674819 212.90342782 -122 202 C-122.45028564 202.35513672 -122.90057129 202.71027344 -123.36450195 203.07617188 C-130.46914374 207.87599146 -137.63279831 207.7000542 -145.87573242 207.54199219 C-148.19340316 207.49989277 -150.50818033 207.50095526 -152.82617188 207.5078125 C-154.31512417 207.49732502 -155.80406166 207.48438928 -157.29296875 207.46875 C-157.97747604 207.46854858 -158.66198334 207.46834717 -159.36723328 207.46813965 C-164.58545941 207.34063457 -168.70702056 206.08705653 -172.609375 202.53515625 C-176.32776197 197.73436211 -178.24589359 194.71514647 -178.26742554 188.59954834 C-178.27595551 187.50335678 -178.28448547 186.40716522 -178.29327393 185.27775574 C-178.29236755 184.07975845 -178.29146118 182.88176117 -178.29052734 181.64746094 C-178.29724457 180.38200943 -178.30396179 179.11655792 -178.31088257 177.8127594 C-178.32854173 174.34354213 -178.33323801 170.87442354 -178.33451414 167.40516567 C-178.33593677 165.23548548 -178.34020857 163.06583029 -178.34550858 160.89615631 C-178.36401118 153.32024038 -178.37217923 145.7443948 -178.37060547 138.16845703 C-178.36940519 131.11792654 -178.39048437 124.06770274 -178.4220928 117.01724982 C-178.44829367 110.95593322 -178.45897112 104.89471651 -178.45769465 98.83334374 C-178.45718597 95.21686793 -178.46281606 91.60066448 -178.48405075 87.9842453 C-178.50711457 83.94599156 -178.49788909 79.90841886 -178.48583984 75.87011719 C-178.49707886 74.68021683 -178.50831787 73.49031647 -178.51989746 72.26435852 C-178.4626422 64.7058047 -177.68004198 58.86035584 -172.24609375 53.16015625 C-166.53671623 49.69506968 -161.60744588 49.11186421 -155 49 C-154.23977539 48.97566895 -153.47955078 48.95133789 -152.69628906 48.92626953 C-150.08921338 48.84533255 -147.48295791 48.79340202 -144.875 48.75 C-143.62251465 48.71749146 -143.62251465 48.71749146 -142.34472656 48.68432617 C-135.71687201 48.65101709 -129.24831856 49.47552407 -123.87890625 53.6484375 C-123.44449219 54.21820313 -123.01007813 54.78796875 -122.5625 55.375 C-122.11003906 55.93960938 -121.65757812 56.50421875 -121.19140625 57.0859375 C-118.30889118 61.71686336 -117.6784813 65.90041687 -117.375 71.3125 C-117.30023438 72.56675781 -117.22546875 73.82101562 -117.1484375 75.11328125 C-117.09945312 76.06589844 -117.05046875 77.01851563 -117 78 C-111.62236889 72.73811112 -106.25819328 67.46283183 -100.91097927 62.17004013 C-98.42772072 59.71289905 -95.94001735 57.26063281 -93.44165039 54.81884766 C-90.57098458 52.01279455 -87.72067535 49.18683802 -84.87109375 46.359375 C-83.96910751 45.48319519 -83.06712128 44.60701538 -82.13780212 43.70428467 C-81.31687576 42.88373596 -80.4959494 42.06318726 -79.65014648 41.21777344 C-78.91956528 40.49829529 -78.18898407 39.77881714 -77.43626404 39.03753662 C-75.76068854 37.12380595 -75.76068854 37.12380595 -76.17811584 34.87701416 C-76.99133775 32.87130373 -76.99133775 32.87130373 -78.5 30.75 C-80.85974564 26.42379967 -81.49317157 22.44140306 -80.52734375 17.66015625 C-78.85457509 12.16652804 -76.6602558 8.06275101 -72.04125977 4.48120117 C-67.5868113 2.31172708 -63.09439213 1.84179556 -58.21484375 1.17578125 C-57.16277237 1.02465378 -56.11070099 0.87352631 -55.02674866 0.71781921 C-52.80090427 0.40078882 -50.57426499 0.08929679 -48.34692383 -0.21704102 C-44.97186276 -0.68275836 -41.60025135 -1.16905601 -38.22851562 -1.65820312 C-36.05746686 -1.9647849 -33.88624748 -2.2701613 -31.71484375 -2.57421875 C-30.72064926 -2.71792404 -29.72645477 -2.86162933 -28.70213318 -3.00968933 C-7.40009448 -5.89266783 -7.40009448 -5.89266783 0 0 Z " fill="#060606" transform="translate(458,380)"/>
<path d="M0 0 C0.33 0.33 0.66 0.66 1 1 C0.94812518 3.63661897 0.82981575 6.23730315 0.66015625 8.8671875 C0.58741234 10.0730098 0.58741234 10.0730098 0.51319885 11.30319214 C-0.04533478 20.25458109 -0.79366368 29.18967755 -1.5625 38.125 C-1.70271192 39.77732357 -1.84268673 41.42966729 -1.98242188 43.08203125 C-2.31890032 47.05492339 -2.65852089 51.02753468 -3 55 C-7 55 -7 55 -10.015625 52.375 C-11.10408297 51.25999428 -12.18190725 50.13452915 -13.25 49 C-13.80429687 48.42765625 -14.35859375 47.8553125 -14.9296875 47.265625 C-16.29564122 45.85256943 -17.64905611 44.42741242 -19 43 C-22.07486553 44.37149237 -24.18314469 45.93451106 -26.5559082 48.31298828 C-27.23373856 48.987742 -27.91156891 49.66249573 -28.60993958 50.35769653 C-29.33291733 51.0878598 -30.05589508 51.81802307 -30.80078125 52.5703125 C-31.55538132 53.32537079 -32.30998138 54.08042908 -33.08744812 54.85836792 C-34.68428739 56.45822751 -36.27869627 58.06051605 -37.87084961 59.66503906 C-40.28779873 62.10011349 -42.71252165 64.52722151 -45.13867188 66.953125 C-46.69317839 68.5125524 -48.24722932 70.07243411 -49.80078125 71.6328125 C-50.51768631 72.35083038 -51.23459137 73.06884827 -51.97322083 73.80862427 C-55.9558717 77.82824475 -59.75777657 81.94844791 -63.45503235 86.23165894 C-65.35604964 88.40752776 -67.35162641 90.46517969 -69.40234375 92.5 C-70.51899414 93.61181641 -70.51899414 93.61181641 -71.65820312 94.74609375 C-72.78645508 95.86177734 -72.78645508 95.86177734 -73.9375 97 C-74.71673828 97.77472656 -75.49597656 98.54945313 -76.29882812 99.34765625 C-78.1969242 101.23410757 -80.09733149 103.11816245 -82 105 C-77.34817121 110.63621267 -72.32123732 115.78737015 -67.12349892 120.92110062 C-65.64494959 122.38202667 -64.17017109 123.84666757 -62.69633484 125.31234741 C-58.51043844 129.47398286 -54.31878239 133.62978193 -50.12280273 137.78125 C-47.54399113 140.33321842 -44.97012282 142.89008787 -42.3991909 145.44999313 C-41.42391286 146.41908866 -40.44674468 147.38628603 -39.46761513 148.35149002 C-38.09923455 149.70056027 -36.73758742 151.05644994 -35.3762207 152.41259766 C-34.6015596 153.17980133 -33.8268985 153.947005 -33.02876282 154.73745728 C-29.21861637 158.98665735 -27.44730907 162.16334468 -27.72265625 168.01171875 C-28.26230561 171.88047258 -29.47098335 174.72779493 -32.51171875 177.2578125 C-36.64950658 179.91715479 -40.03844599 180.72168058 -45 180 C-49.21080728 177.49099145 -52.59480525 174.64055108 -56.02392578 171.15551758 C-56.48654816 170.68836838 -56.94917053 170.22121918 -57.42581177 169.73991394 C-58.41995121 168.73489594 -59.41179634 167.72760409 -60.40152359 166.71824074 C-61.96896552 165.12041981 -63.54317733 163.52955556 -65.11935425 161.94035339 C-69.5958788 157.42423734 -74.05935818 152.89530432 -78.52001953 148.36352539 C-81.25683821 145.58401784 -84.00091098 142.81183891 -86.74938583 140.04385948 C-87.79290118 138.98978124 -88.83349123 137.9327986 -89.87106705 136.87287331 C-91.31893012 135.39384559 -92.77575652 133.92422316 -94.23486328 132.45629883 C-95.06059845 131.61786942 -95.88633362 130.77944 -96.73709106 129.91560364 C-98.95418188 128.03878608 -100.131737 127.2344971 -103 127 C-110.6844634 131.00943476 -117.85325681 138.48348003 -122 146 C-124.93662059 155.7967333 -123.73593769 166.98484797 -123 177 C-131.58 177 -140.16 177 -149 177 C-149 136.41 -149 95.82 -149 54 C-140.42 54 -131.84 54 -123 54 C-122.505 80.235 -122.505 80.235 -122 107 C-113.63728837 98.66642423 -113.63728837 98.66642423 -105.27929688 90.328125 C-101.86628184 86.92106365 -98.45274721 83.51453547 -95.03588867 80.11132812 C-92.27798281 77.36437066 -89.52260139 74.6149033 -86.76887703 71.86375427 C-85.72331412 70.82002424 -84.67687868 69.77716743 -83.62951469 68.73524475 C-78.4338131 63.56543971 -73.34702629 58.36035812 -68.57655334 52.79125977 C-65.993484 49.85640939 -63.19009384 47.16297314 -60.375 44.453125 C-59.16218585 43.26751455 -57.94996219 42.0812998 -56.73828125 40.89453125 C-54.85645399 39.05624877 -52.97111965 37.22220422 -51.07568359 35.39794922 C-49.2265767 33.6151016 -47.39351243 31.81702554 -45.5625 30.015625 C-44.70180908 29.1983493 -44.70180908 29.1983493 -43.82373047 28.36456299 C-42.05922365 26.67047446 -42.05922365 26.67047446 -40 24 C-39.9935883 20.59274672 -41.13048595 19.85791078 -43.50390625 17.2734375 C-44.51610367 16.29961096 -45.53592058 15.33365344 -46.5625 14.375 C-48.42679842 12.61927906 -50.22128413 10.84611367 -52 9 C-52 8.34 -52 7.68 -52 7 C-42.79677745 5.11923245 -33.66305498 3.6487453 -24.31542969 2.70410156 C-19.50074753 2.20603099 -14.85074496 1.41992133 -10.12109375 0.37890625 C-6.6912742 -0.23378711 -3.47538479 -0.18956644 0 0 Z " fill="#FBFBFB" transform="translate(446,393)"/>
<path d="M0 0 C13.26069693 9.60067101 21.82082553 22.96913695 24.81640625 39.0390625 C25.98456627 48.61976837 24.89732471 57.89609397 21.81640625 67.0390625 C21.48769531 68.03550781 21.15898437 69.03195312 20.8203125 70.05859375 C15.49591472 84.41051717 5.03008349 94.19548077 -8.55859375 100.8515625 C-24.04908992 107.36461202 -39.59834698 108.04109688 -55.25 101.8203125 C-62.72507024 98.3834986 -68.42912922 93.87602831 -74.18359375 88.0390625 C-74.75851562 87.47445312 -75.3334375 86.90984375 -75.92578125 86.328125 C-85.76507358 75.8770632 -89.4035909 62.10952843 -89.49609375 48.1640625 C-89.50455322 46.93224243 -89.50455322 46.93224243 -89.51318359 45.67553711 C-89.46092586 41.36073149 -89.1798197 37.96788967 -87.18359375 34.0390625 C-85.6228409 35.35151376 -84.06768805 36.67088472 -82.53125 38.01171875 C-80.75137841 39.54874596 -78.9410077 41.05054337 -77.1171875 42.53515625 C-71.43799069 47.28281738 -67.26307013 50.84007706 -66.50390625 58.56640625 C-65.49417947 66.3610044 -60.68909924 72.44408034 -54.7578125 77.27734375 C-45.22910931 83.79850481 -36.22165789 85.18429665 -24.90234375 83.75 C-14.62004105 81.66905779 -7.28743415 75.21656844 -1.18359375 67.0390625 C3.74047693 57.26866962 5.41022748 48.5436708 2.69140625 37.9140625 C-0.513896 28.5068731 -6.77431026 20.2004632 -15.7890625 15.75390625 C-20.40540318 13.93732085 -24.47679364 12.91489077 -29.43359375 12.7265625 C-34.24835937 12.37722619 -36.32449068 10.81644714 -39.44140625 7.21484375 C-40.01632812 6.49683594 -40.59125 5.77882813 -41.18359375 5.0390625 C-41.92351562 4.18699219 -42.6634375 3.33492187 -43.42578125 2.45703125 C-47.67538 -2.56455344 -47.67538 -2.56455344 -49.18359375 -4.9609375 C-48.85359375 -5.9509375 -48.52359375 -6.9409375 -48.18359375 -7.9609375 C-31.8641401 -12.06583075 -14.09098147 -8.81859027 0 0 Z " fill="#FAFAF8" transform="translate(438.18359375,510.9609375)"/>
<path d="M0 0 C4.95 -0.0825 9.9 -0.165 15 -0.25 C17.31837891 -0.30462402 17.31837891 -0.30462402 19.68359375 -0.36035156 C27.06792028 -0.41990258 32.74826441 -0.3516983 39 4 C42.50914271 7.47989986 43.86964416 11.08750911 44.5625 15.9375 C44.21385418 20.71488997 42.57981308 24.98432766 40 29 C35.2195122 33 35.2195122 33 31 33 C31.36351562 33.62044189 31.72703125 34.24088379 32.1015625 34.88012695 C33.74110256 37.68705107 35.37064141 40.4996546 37 43.3125 C37.57234375 44.28896484 38.1446875 45.26542969 38.734375 46.27148438 C39.27578125 47.20927734 39.8171875 48.14707031 40.375 49.11328125 C40.87773438 49.97735596 41.38046875 50.84143066 41.8984375 51.73168945 C43 54 43 54 43 57 C38.38 57 33.76 57 29 57 C27.32849199 53.71071103 25.66261689 50.41877887 24 47.125 C23.52304687 46.18785156 23.04609375 45.25070312 22.5546875 44.28515625 C21.87792969 42.94130859 21.87792969 42.94130859 21.1875 41.5703125 C20.76855469 40.74289551 20.34960938 39.91547852 19.91796875 39.06298828 C19 37 19 37 19 35 C16.69 35 14.38 35 12 35 C12 42.26 12 49.52 12 57 C8.04 57 4.08 57 0 57 C0 38.19 0 19.38 0 0 Z " fill="#F9F8F7" transform="translate(680,456)"/>
<path d="M0 0 C4.95 0 9.9 0 15 0 C17.80081022 6.14714277 20.30935752 12.31943132 22.6015625 18.671875 C22.92410004 19.55731995 23.24663757 20.44276489 23.57894897 21.3550415 C24.59729227 24.15228367 25.6113326 26.95106041 26.625 29.75 C27.64664928 32.56290888 28.66920022 35.375487 29.69247437 38.18780518 C30.32578528 39.92921625 30.95801996 41.67101921 31.58901978 43.41326904 C31.87626923 44.20469299 32.16351868 44.99611694 32.45947266 45.81152344 C32.72576477 46.54528198 32.99205688 47.27904053 33.26641846 48.03503418 C33.87536265 49.66614737 34.53557116 51.27801345 35.20849609 52.88378906 C36 55 36 55 36 58 C31.71 58 27.42 58 23 58 C21.68 54.7 20.36 51.4 19 48 C11.41 47.67 3.82 47.34 -4 47 C-4.99 50.63 -5.98 54.26 -7 58 C-11.62 58 -16.24 58 -21 58 C-18.98333233 51.08404588 -16.74930615 44.3043734 -14.27734375 37.5390625 C-13.93119522 36.58607269 -13.58504669 35.63308289 -13.22840881 34.6512146 C-12.50284272 32.65581318 -11.77589253 30.66091454 -11.04760742 28.66650391 C-9.93338558 25.61372719 -8.82480457 22.55894314 -7.71679688 19.50390625 C-7.0081462 17.55717016 -6.29917327 15.61055134 -5.58984375 13.6640625 C-5.09447365 12.2984166 -5.09447365 12.2984166 -4.58909607 10.90518188 C-4.12334923 9.63268082 -4.12334923 9.63268082 -3.64819336 8.33447266 C-3.37744492 7.59186188 -3.10669647 6.8492511 -2.82774353 6.08413696 C-2.00225463 4.00567683 -1.00014283 2.00028567 0 0 Z " fill="#F5F5F3" transform="translate(635,455)"/>
<path d="M0 0 C5.01979755 -1.0240387 10.14322624 -2.00329702 15 0 C19.27559233 4.21579384 21.7690193 9.91092262 24.20654297 15.32592773 C24.88262042 16.99465975 24.88262042 16.99465975 26 18 C29.3 12.06 32.6 6.12 36 0 C40.62 0 45.24 0 50 0 C49.03440122 3.86239512 47.93999269 5.92454649 45.8046875 9.2109375 C45.17175781 10.20867187 44.53882813 11.20640625 43.88671875 12.234375 C42.54683574 14.32615352 41.19786883 16.41214141 39.83984375 18.4921875 C39.20949219 19.4925 38.57914063 20.4928125 37.9296875 21.5234375 C37.34429199 22.43013184 36.75889648 23.33682617 36.15576172 24.27099609 C34.6827839 27.74901597 34.91858628 29.40275099 36 33 C37.55946522 35.93771848 37.55946522 35.93771848 39.59765625 38.80078125 C40.31630859 39.85974609 41.03496094 40.91871094 41.77539062 42.00976562 C42.53731844 43.11098302 43.29969366 44.21189098 44.0625 45.3125 C45.55706164 47.49360716 47.04604169 49.6784438 48.53515625 51.86328125 C49.199104 52.82532471 49.86305176 53.78736816 50.54711914 54.77856445 C52 57 52 57 52 58 C46.98452157 58.96297186 41.87346703 59.87772542 37 58 C32.85509471 54.16171426 30.39619625 48.86232841 28.02050781 43.80932617 C26.91641255 41.85180225 25.65030892 40.51258825 24 39 C23.75507812 39.67417969 23.51015625 40.34835937 23.2578125 41.04296875 C21.72738164 44.64090714 19.84156692 47.93876063 17.875 51.3125 C17.50246094 51.95767578 17.12992188 52.60285156 16.74609375 53.26757812 C15.83367787 54.84675945 14.91724491 56.42361864 14 58 C9.05 58 4.1 58 -1 58 C0.6209413 53.94764674 2.08480358 51.17651409 4.51171875 47.65625 C5.18654297 46.65722656 5.86136719 45.65820312 6.55664062 44.62890625 C7.98093699 42.53750133 9.41329129 40.45156209 10.85351562 38.37109375 C11.52447266 37.37207031 12.19542969 36.37304688 12.88671875 35.34375 C13.50764404 34.43818359 14.12856934 33.53261719 14.76831055 32.59960938 C16.26213297 29.44674095 16.14136918 28.25525634 15 25 C13.85485777 22.71029589 13.85485777 22.71029589 12.3828125 20.49609375 C11.85816406 19.67302734 11.33351563 18.84996094 10.79296875 18.00195312 C10.24253906 17.15568359 9.69210937 16.30941406 9.125 15.4375 C8.58230469 14.58736328 8.03960938 13.73722656 7.48046875 12.86132812 C4.53982133 8.25869174 4.53982133 8.25869174 1.31982422 3.85180664 C0 2 0 2 0 0 Z " fill="#F6F5F3" transform="translate(558,455)"/>
<path d="M0 0 C1.90845703 0.04060547 1.90845703 0.04060547 3.85546875 0.08203125 C5.31919922 0.13423828 5.31919922 0.13423828 6.8125 0.1875 C5.1571321 3.96210263 2.72211115 7.03812626 0.1875 10.25 C-4.4045481 16.13760763 -8.8345171 22.12007411 -13.1875 28.1875 C-11.53975296 31.93319819 -9.13877705 34.99543245 -6.625 38.1875 C-5.72990384 39.33810243 -4.83538648 40.48915532 -3.94140625 41.640625 C-3.48652832 42.22521484 -3.03165039 42.80980469 -2.56298828 43.41210938 C-0.3741213 46.23735622 1.78619386 49.08359338 3.9375 51.9375 C4.68257812 52.92234375 5.42765625 53.9071875 6.1953125 54.921875 C7.8125 57.1875 7.8125 57.1875 7.8125 58.1875 C2.77282808 59.04444826 -2.24321708 59.75092911 -7.1875 58.1875 C-11.44451906 55.07920037 -14.16992661 50.40894087 -16.97070312 46.02636719 C-18.7496428 43.33796958 -20.80522821 40.90530482 -22.875 38.4375 C-26.1875 34.42798096 -26.1875 34.42798096 -26.1875 32.1875 C-26.8475 32.1875 -27.5075 32.1875 -28.1875 32.1875 C-28.1875 40.4375 -28.1875 48.6875 -28.1875 57.1875 C-32.1475 57.1875 -36.1075 57.1875 -40.1875 57.1875 C-40.1875 38.7075 -40.1875 20.2275 -40.1875 1.1875 C-36.2275 1.1875 -32.2675 1.1875 -28.1875 1.1875 C-28.1875 9.4375 -28.1875 17.6875 -28.1875 26.1875 C-27.5275 26.1875 -26.8675 26.1875 -26.1875 26.1875 C-25.92251709 25.619104 -25.65753418 25.05070801 -25.38452148 24.46508789 C-24.11236838 22.04454611 -22.65682554 19.94718198 -21.03515625 17.74609375 C-20.42349609 16.91529297 -19.81183594 16.08449219 -19.18164062 15.22851562 C-18.54419922 14.36935547 -17.90675781 13.51019531 -17.25 12.625 C-16.61642578 11.76197266 -15.98285156 10.89894531 -15.33007812 10.00976562 C-7.7754517 -0.21400326 -7.7754517 -0.21400326 0 0 Z " fill="#F9F9F8" transform="translate(544.1875,454.8125)"/>
<path d="M0 0 C21 0 21 0 30 4 C32.99401608 7.21309043 34.22307197 9.67845046 34.4375 14 C34.13885697 19.21629818 32.4011978 22.73892198 28.5 26.25 C26.68218896 27.52246773 24.846254 28.769164 23 30 C23.33322266 30.56509277 23.66644531 31.13018555 24.00976562 31.71240234 C25.51100669 34.26398724 27.0055726 36.819419 28.5 39.375 C29.02464844 40.26445313 29.54929687 41.15390625 30.08984375 42.0703125 C30.58613281 42.92109375 31.08242188 43.771875 31.59375 44.6484375 C32.05458984 45.43395996 32.51542969 46.21948242 32.99023438 47.02880859 C34 49 34 49 34 51 C30.87109375 51.5859375 30.87109375 51.5859375 27 51 C24.43186068 48.20817146 22.80312272 44.97624042 21.0625 41.625 C20.32290039 40.29082031 20.32290039 40.29082031 19.56835938 38.9296875 C16 32.39676881 16 32.39676881 16 30 C12.7 30 9.4 30 6 30 C6 36.93 6 43.86 6 51 C4.02 51 2.04 51 0 51 C0 34.17 0 17.34 0 0 Z " fill="#EBEAE9" transform="translate(594,540)"/>
<path d="M0 0 C2.31 0 4.62 0 7 0 C7 16.83 7 33.66 7 51 C5.02 51 3.04 51 1 51 C0.67 38.79 0.34 26.58 0 14 C-2.454375 19.548125 -4.90875 25.09625 -7.4375 30.8125 C-8.21150146 32.56022705 -8.98550293 34.3079541 -9.78295898 36.10864258 C-10.39577834 37.49555786 -11.00849681 38.88251772 -11.62109375 40.26953125 C-11.93985474 40.98830444 -12.25861572 41.70707764 -12.58703613 42.44763184 C-13.83526407 45.27658512 -15.02153732 48.06461196 -16 51 C-17.98 51 -19.96 51 -22 51 C-22.31227539 50.25951416 -22.62455078 49.51902832 -22.94628906 48.75610352 C-24.379976 45.35786222 -25.81497857 41.96017797 -27.25 38.5625 C-27.74113281 37.39783203 -28.23226562 36.23316406 -28.73828125 35.03320312 C-29.22167969 33.88916016 -29.70507812 32.74511719 -30.203125 31.56640625 C-30.64301758 30.52427979 -31.08291016 29.48215332 -31.53613281 28.40844727 C-33.31959943 24.25584929 -35.1645047 20.12986442 -37 16 C-37.33 27.22 -37.66 38.44 -38 50 C-39.98 50 -41.96 50 -44 50 C-44 33.83 -44 17.66 -44 1 C-41.69 1 -39.38 1 -37 1 C-34.57180414 6.35365524 -32.15092715 11.71053524 -29.73681641 17.07055664 C-28.91428478 18.89405697 -28.08974937 20.71665482 -27.26318359 22.53833008 C-26.07643958 25.1547231 -24.89690521 27.77426161 -23.71875 30.39453125 C-23.34689575 31.21025101 -22.9750415 32.02597076 -22.59191895 32.8664093 C-22.25156616 33.62697128 -21.91121338 34.38753326 -21.56054688 35.17114258 C-21.2585437 35.83954666 -20.95654053 36.50795074 -20.64538574 37.1966095 C-20 39 -20 39 -20 42 C-19.34 42 -18.68 42 -18 42 C-17.443125 40.19595703 -17.443125 40.19595703 -16.875 38.35546875 C-14.69439615 31.81749629 -11.82690532 25.59109769 -9 19.3125 C-8.46632813 18.11560547 -7.93265625 16.91871094 -7.3828125 15.68554688 C-5.01884475 10.40190254 -2.61623227 5.16445408 0 0 Z " fill="#EEEDEB" transform="translate(683,540)"/>
<path d="M0 0 C4.77281295 2.77105752 8.41383842 5.88275845 10.25 11.25 C10.311875 11.78625 10.37375 12.3225 10.4375 12.875 C8.1275 12.875 5.8175 12.875 3.4375 12.875 C3.19 12.09125 2.9425 11.3075 2.6875 10.5 C1.22321943 7.42501079 0.56979749 7.00610743 -2.5625 5.875 C-3.449375 5.50375 -4.33625 5.1325 -5.25 4.75 C-11.29213772 3.15396362 -16.33011949 2.78871911 -21.875 6 C-26.296245 9.10015586 -28.85382628 12.74897883 -30.5625 17.875 C-31.34364351 24.96931979 -30.39235477 30.79448383 -26.5625 36.875 C-22.15353443 41.28396557 -17.90289941 42.96440019 -11.75 43.3125 C-6.30805441 43.20691001 -2.65500605 41.39854789 1.4375 37.875 C1.953125 37.111875 2.46875 36.34875 3 35.5625 C3.474375 35.005625 3.94875 34.44875 4.4375 33.875 C8.125 33.625 8.125 33.625 11.4375 33.875 C9.18593569 39.64463354 5.49713527 43.4369291 0.4375 46.875 C-6.54710896 49.78445091 -14.66411251 50.11331236 -22.00390625 48.2578125 C-28.50584724 45.38219868 -33.59219815 39.61455736 -36.5 33.1875 C-38.62636802 26.44957135 -38.94505622 18.12107111 -36.125 11.5625 C-28.48810758 -1.28384403 -13.7551139 -6.42318382 0 0 Z " fill="#F2F1F1" transform="translate(571.5625,542.125)"/>
<path d="M0 0 C3.8053125 -0.12375 3.8053125 -0.12375 7.6875 -0.25 C8.87218872 -0.30462402 8.87218872 -0.30462402 10.08081055 -0.36035156 C13.80644349 -0.41876331 15.67878495 -0.18734036 18.98046875 1.73828125 C21.80178202 4.89793383 21.71491257 6.73197085 21.5 10.80859375 C20.70745253 14.28218073 18.76206768 15.89556748 16 18 C11.53794887 20.23102556 4.78092876 19.04346299 0 19 C0 12.73 0 6.46 0 0 Z " fill="#050404" transform="translate(600,546)"/>
<path d="M0 0 C12.2920399 -0.40523208 12.2920399 -0.40523208 17 3 C19 5 19 5 19.375 7.8125 C18.91533028 11.7196926 17.75388032 13.24611968 15 16 C10.09931037 17.63356321 5.14261524 17.05529694 0 17 C0 11.39 0 5.78 0 0 Z " fill="#131213" transform="translate(692,465)"/>
<path d="M0 0 C2.11340464 2.11340464 2.58435125 3.24985646 3.5078125 6.02734375 C3.90419922 7.21553711 3.90419922 7.21553711 4.30859375 8.42773438 C4.57800781 9.25595703 4.84742188 10.08417969 5.125 10.9375 C5.40214844 11.76185547 5.67929687 12.58621094 5.96484375 13.43554688 C8 19.60618073 8 19.60618073 8 23 C3.05 23 -1.9 23 -7 23 C-5.48526781 15.01323028 -2.83197448 7.59877122 0 0 Z " fill="#191818" transform="translate(642,469)"/>
<path d="M0 0 C2 2 2 2 2 5 C2.66 5 3.32 5 4 5 C2.125 10.75 2.125 10.75 1 13 C-0.98 13 -2.96 13 -5 13 C-3.58192622 8.52761347 -1.88695626 4.28853694 0 0 Z " fill="#E0DCD9" transform="translate(678,550)"/>
<path d="M0 0 C0.99 0.33 1.98 0.66 3 1 C3 7.27 3 13.54 3 20 C2.67 20 2.34 20 2 20 C1.67 14.39 1.34 8.78 1 3 C0.34 3 -0.32 3 -1 3 C-0.67 2.01 -0.34 1.02 0 0 Z " fill="#ECECEA" transform="translate(682,551)"/>
<path d="M0 0 C3 3.75 3 3.75 3 6 C1.35 6.66 -0.3 7.32 -2 8 C-2.33 6.68 -2.66 5.36 -3 4 C-2.34 4 -1.68 4 -1 4 C-0.67 2.68 -0.34 1.36 0 0 Z " fill="#E3DDD9" transform="translate(649,550)"/>
<path d="M0 0 C0.66 0.33 1.32 0.66 2 1 C-0.31 3.31 -2.62 5.62 -5 8 C-5 5 -5 5 -2.5 2.3125 C-1.675 1.549375 -0.85 0.78625 0 0 Z " fill="#333534" transform="translate(288,432)"/>
</svg>